# xmcd
# 
# Track frame offsets:
#     183
#     16548
#     26670
#     40070
#     49740
#     68935
#     84770
#     100940
#     115745
#     129373
#     139898
#     152093
#     168328
#     185295
#     195303
#     210100
#     224948
#     238540
#     252358
#     264435
# 
# Disc length: 3696
# 
# Revision: 4
# Processed by: cddbd v1.5.2PL0 Copyright (c) Steve Scherf et al.
# Submitted via: fre:ac v1.0.27
# 
DISCID=060e6e14
DTITLE=Ray Charles - 1962-1965 ABC-Paramount Recordings - Greatest Country and Western Hits
DYEAR=1989
DGENRE=Country
TTITLE0=Your Cheating Heart
TTITLE1=Hey Good Lookin'
TTITLE2=Take These Chains From My Heart
TTITLE3=Don't Tell Me Your Troubles - With The Raelets
TTITLE4=I Can't Stop Loving You
TTITLE5=Just A Little Lovin' (Will Go A Long Way)
TTITLE6=It Makes No Difference Now
TTITLE7=You Don't Know Me
TTITLE8=You Are My Sunshine - With The Raelets Featuring Margie Hendrix
TTITLE9=I'll Never Stand In Your Way
TTITLE10=Someday (You'll Want Me To Want You)
TTITLE11=I Love You So Much It Hurts
TTITLE12=Careless Love - Previously Unreleased Take
TTITLE13=Oh, Lonesome Me
TTITLE14=Hang Your Head In Shame
TTITLE15=Midnight
TTITLE16=No Letter Today
TTITLE17=Crying Time
TTITLE18=Together Agian
TTITLE19=Don't Let Her Know
EXTD=YEAR: 1989
EXTT0=
EXTT1=
EXTT2=
EXTT3=
EXTT4=
EXTT5=
EXTT6=
EXTT7=
EXTT8=
EXTT9=
EXTT10=
EXTT11=
EXTT12=
EXTT13=
EXTT14=
EXTT15=
EXTT16=
EXTT17=
EXTT18=
EXTT19=
PLAYORDER=
